<svg width="251" height="66" viewBox="0 0 251 66" fill="none" xmlns="http://www.w3.org/2000/svg">
<path d="M143.206 47.3194C140.153 51.078 136.003 53.7888 131.334 55.0729C126.666 56.357 121.713 56.1502 117.168 54.4814C112.623 52.8126 108.712 49.7652 105.984 45.7653C103.256 41.7654 101.845 37.0128 101.95 32.1721C102.055 27.3314 103.67 22.6444 106.569 18.7665C109.469 14.8886 113.507 12.0136 118.12 10.5434C122.734 9.07315 127.691 9.08124 132.299 10.5665C136.908 12.0518 140.937 14.94 143.824 18.8273L125.174 32.6757L143.206 47.3194Z" fill="#F8F8F8"/>
<circle cx="3.14364" cy="32.5098" r="3.14364" fill="#5900FF"/>
<circle cx="175.186" cy="32.5098" r="3.14364" fill="#5900FF"/>
<circle cx="27.1496" cy="32.5098" r="3.14364" fill="#5900FF"/>
<circle cx="199.192" cy="32.5098" r="3.14364" fill="#5900FF"/>
<circle cx="51.1556" cy="32.5098" r="3.14364" fill="#5900FF"/>
<circle cx="223.198" cy="32.5098" r="3.14364" fill="#5900FF"/>
<circle cx="75.1615" cy="32.5098" r="3.14364" fill="#5900FF"/>
<circle cx="247.204" cy="32.5098" r="3.14364" fill="#5900FF"/>
</svg>
