<svg width="166" height="202" viewBox="0 0 166 202" fill="none" xmlns="http://www.w3.org/2000/svg">
<rect x="44.0753" y="32.5594" width="115.923" height="138.568" transform="rotate(17.575 44.0753 32.5594)" fill="#151515" stroke="#F8F8F8" stroke-width="2.1567"/>
<path d="M103.313 67.3785L87.1216 62.2501L87.8542 59.9371L85.5412 59.2045L86.2738 56.8915L83.9608 56.1588L95.6828 19.1502L97.9958 19.8829L98.7285 17.5698L101.041 18.3025L101.774 15.9894L111.026 18.9199L110.294 21.233L112.607 21.9656L111.874 24.2786L114.187 25.0112L103.93 57.3938L101.617 56.6611L100.885 58.9742L93.9455 56.7763L94.6782 54.4633L92.3651 53.7306L101.157 25.9742L105.783 27.4394L97.7238 52.8828L100.037 53.6155L108.828 25.859L106.515 25.1264L107.248 22.8134L102.622 21.3481L101.889 23.6612L99.5762 22.9285L89.3195 55.311L91.6325 56.0437L90.8999 58.3567L102.465 62.0198L103.198 59.7068L105.511 60.4394L115.035 30.3699L119.661 31.8352L109.404 64.2177L107.091 63.4851L106.359 65.7981L104.045 65.0655L103.313 67.3785Z" fill="#5900FF"/>
<path d="M90.263 78.9138C81.1293 76.0209 71.2205 76.8747 62.7164 81.2876C54.2123 85.7004 47.8095 93.3107 44.9165 102.444L28.5545 154.102L45.5594 145.278L52.9127 159.449L67.0835 152.096L74.4368 166.267L88.6076 158.913L97.4316 175.918L113.794 124.26C116.687 115.127 115.833 105.218 111.42 96.7138C107.007 88.2096 99.3967 81.8068 90.263 78.9138Z" stroke="#FF9900" stroke-width="5.92209" stroke-linecap="round" stroke-linejoin="round"/>
<circle cx="68.2118" cy="110.289" r="5.32988" transform="rotate(17.575 68.2118 110.289)" fill="#FF9900"/>
<circle cx="90.2299" cy="117.262" r="5.32988" transform="rotate(17.575 90.2299 117.262)" fill="#FF9900"/>
</svg>
