<svg width="68" height="68" viewBox="0 0 68 68" fill="none" xmlns="http://www.w3.org/2000/svg">
<g filter="url(#filter0_d_380_2)">
<rect x="0.536133" y="0.536133" width="62" height="62" fill="#F9F9F9"/>
</g>
<g filter="url(#filter1_d_380_2)">
<path d="M36.6318 20.612C36.8022 20.5268 36.9995 20.5127 37.1803 20.5729C37.361 20.6332 37.5105 20.7627 37.5958 20.933L38.075 21.8914C38.118 21.9759 38.1439 22.0681 38.1511 22.1627C38.1583 22.2573 38.1468 22.3524 38.1171 22.4425C38.0874 22.5326 38.0401 22.6159 37.9781 22.6876C37.916 22.7594 37.8404 22.8181 37.7555 22.8605C37.6706 22.9029 37.5782 22.928 37.4836 22.9345C37.389 22.941 37.294 22.9287 37.2041 22.8983C37.1143 22.8679 37.0313 22.82 36.9601 22.7574C36.8888 22.6948 36.8306 22.6187 36.7889 22.5335L36.3098 21.5751C36.2246 21.4046 36.2107 21.2072 36.2711 21.0264C36.3315 20.8456 36.4612 20.6972 36.6318 20.612ZM39.6649 24.7664C39.75 24.5961 39.8993 24.4665 40.0798 24.4062C40.2604 24.3458 40.4576 24.3595 40.628 24.4444L41.5863 24.9235C41.6715 24.9653 41.7476 25.0234 41.8102 25.0947C41.8729 25.1659 41.9207 25.2489 41.9511 25.3387C41.9815 25.4286 41.9939 25.5236 41.9874 25.6182C41.9809 25.7129 41.9557 25.8053 41.9134 25.8901C41.871 25.975 41.8122 26.0506 41.7405 26.1127C41.6687 26.1748 41.5854 26.222 41.4953 26.2517C41.4053 26.2814 41.3102 26.293 41.2156 26.2857C41.121 26.2785 41.0288 26.2527 40.9443 26.2096L39.9859 25.7305C39.8154 25.6453 39.6857 25.4959 39.6253 25.3151C39.5649 25.1343 39.5797 24.9369 39.6649 24.7664ZM41.2941 22.2412C41.421 22.1049 41.4901 21.9247 41.4868 21.7385C41.4836 21.5523 41.4081 21.3746 41.2764 21.243C41.1448 21.1113 40.9671 21.0358 40.7809 21.0325C40.5947 21.0293 40.4145 21.0984 40.2782 21.2253L39.3199 22.1837C39.1929 22.3199 39.1238 22.5001 39.1271 22.6863C39.1304 22.8725 39.2058 23.0502 39.3375 23.1819C39.4692 23.3136 39.6468 23.389 39.833 23.3923C40.0193 23.3956 40.1995 23.3265 40.3357 23.1995L41.2941 22.2412ZM37.9111 31.7958C37.9111 33.702 37.1539 35.5302 35.806 36.8781C34.458 38.226 32.6299 38.9833 30.7236 38.9833C28.8174 38.9833 26.9892 38.226 25.6413 36.8781C24.2934 35.5302 23.5361 33.702 23.5361 31.7958C23.5361 29.8895 24.2934 28.0613 25.6413 26.7134C26.9892 25.3655 28.8174 24.6083 30.7236 24.6083C32.6299 24.6083 34.458 25.3655 35.806 26.7134C37.1539 28.0613 37.9111 29.8895 37.9111 31.7958ZM38.4191 25.1162L37.3093 26.2278C36.9996 25.8612 36.6598 25.5211 36.2935 25.211L37.4032 24.1003C37.469 24.0297 37.5484 23.9731 37.6365 23.9338C37.7247 23.8945 37.8199 23.8734 37.9164 23.8717C38.0129 23.87 38.1087 23.8877 38.1982 23.9239C38.2877 23.96 38.369 24.0138 38.4373 24.0821C38.5055 24.1503 38.5594 24.2316 38.5955 24.3211C38.6317 24.4106 38.6494 24.5065 38.6477 24.603C38.646 24.6995 38.6249 24.7947 38.5856 24.8829C38.5463 24.971 38.4897 25.0504 38.4191 25.1162Z" fill="#5900FF"/>
</g>
<defs>
<filter id="filter0_d_380_2" x="0.536133" y="0.536133" width="67.4569" height="67.4569" filterUnits="userSpaceOnUse" color-interpolation-filters="sRGB">
<feFlood flood-opacity="0" result="BackgroundImageFix"/>
<feColorMatrix in="SourceAlpha" type="matrix" values="0 0 0 0 0 0 0 0 0 0 0 0 0 0 0 0 0 0 127 0" result="hardAlpha"/>
<feOffset dx="5.4569" dy="5.4569"/>
<feComposite in2="hardAlpha" operator="out"/>
<feColorMatrix type="matrix" values="0 0 0 0 0.35 0 0 0 0 0 0 0 0 0 1 0 0 0 1 0"/>
<feBlend mode="normal" in2="BackgroundImageFix" result="effect1_dropShadow_380_2"/>
<feBlend mode="normal" in="SourceGraphic" in2="effect1_dropShadow_380_2" result="shape"/>
</filter>
<filter id="filter1_d_380_2" x="23.5361" y="20.5361" width="20.4529" height="20" filterUnits="userSpaceOnUse" color-interpolation-filters="sRGB">
<feFlood flood-opacity="0" result="BackgroundImageFix"/>
<feColorMatrix in="SourceAlpha" type="matrix" values="0 0 0 0 0 0 0 0 0 0 0 0 0 0 0 0 0 0 127 0" result="hardAlpha"/>
<feOffset dx="2" dy="1"/>
<feComposite in2="hardAlpha" operator="out"/>
<feColorMatrix type="matrix" values="0 0 0 0 1 0 0 0 0 0.6 0 0 0 0 0 0 0 0 1 0"/>
<feBlend mode="normal" in2="BackgroundImageFix" result="effect1_dropShadow_380_2"/>
<feBlend mode="normal" in="SourceGraphic" in2="effect1_dropShadow_380_2" result="shape"/>
</filter>
</defs>
</svg>
