<svg width="82" height="122" viewBox="0 0 82 122" fill="none" xmlns="http://www.w3.org/2000/svg">
<path d="M46.731 29.601C46.731 29.601 36.3085 29.2256 31.524 20.6919C26.7451 12.1582 32.3773 4 32.3773 4C32.3773 4 42.8055 4.37548 47.5901 12.9092C52.3689 21.4428 46.7367 29.601 46.7367 29.601M45.6273 29.601C53.9505 41.5425 64.4981 69.2827 40.0747 84.7173C9.55827 104.003 6.78198 109.516 4 117.782" stroke="white" stroke-width="6.58019" stroke-linecap="round" stroke-linejoin="round"/>
<path d="M18.0408 97.8709C18.0408 97.8709 38.3623 90.1109 26.7451 69.4253C26.7451 69.4253 3.52214 77.1853 18.0408 97.8709Z" stroke="white" stroke-width="6.58019" stroke-linecap="round" stroke-linejoin="round"/>
<path d="M18.2228 100.716C18.2228 100.716 31.689 83.2216 49.513 101.313C49.513 101.313 35.2447 121.663 18.2228 100.716ZM55.259 66.2395C55.259 66.2395 52.9947 42.9938 77.7879 43.8472C77.7879 43.8472 81.4062 69.8635 55.259 66.2395Z" stroke="white" stroke-width="6.58019" stroke-linecap="round" stroke-linejoin="round"/>
<path d="M55.1453 63.7363C55.1453 63.7363 57.4095 40.4962 32.6163 41.3496C32.6163 41.3496 28.998 67.3603 55.1453 63.7363Z" stroke="white" stroke-width="6.58019" stroke-linecap="round" stroke-linejoin="round"/>
</svg>
