<svg width="24" height="21" viewBox="0 0 24 21" fill="none" xmlns="http://www.w3.org/2000/svg">
<path d="M8.479 11.6458C8.479 10.7121 8.84995 9.81651 9.51023 9.15623C10.1705 8.49594 11.0661 8.125 11.9998 8.125C12.9336 8.125 13.8292 8.49594 14.4894 9.15623C15.1497 9.81651 15.5207 10.7121 15.5207 11.6458C15.5207 12.5796 15.1497 13.4752 14.4894 14.1354C13.8292 14.7957 12.9336 15.1667 11.9998 15.1667C11.0661 15.1667 10.1705 14.7957 9.51023 14.1354C8.84995 13.4752 8.479 12.5796 8.479 11.6458Z" fill="white"/>
<path d="M7.539 0H16.4613L18.0863 3.25H23.9168V20.5833H0.0834961V3.25H5.914L7.539 0ZM6.31266 11.6458C6.31266 13.1543 6.91188 14.6009 7.97849 15.6675C9.04511 16.7341 10.4917 17.3333 12.0002 17.3333C13.5086 17.3333 14.9552 16.7341 16.0218 15.6675C17.0884 14.6009 17.6877 13.1543 17.6877 11.6458C17.6877 10.1374 17.0884 8.69078 16.0218 7.62416C14.9552 6.55755 13.5086 5.95833 12.0002 5.95833C10.4917 5.95833 9.04511 6.55755 7.97849 7.62416C6.91188 8.69078 6.31266 10.1374 6.31266 11.6458Z" fill="white"/>
</svg>
