<svg width="1100" height="250" viewBox="0 0 1100 250" fill="none" xmlns="http://www.w3.org/2000/svg">
<g clip-path="url(#clip0_46_397)">
<mask id="mask0_46_397" style="mask-type:alpha" maskUnits="userSpaceOnUse" x="0" y="129" width="376" height="122">
<rect y="236.823" width="13.4662" height="13.4662" fill="white"/>
<rect x="13.4666" y="223.356" width="13.4662" height="13.4662" fill="white"/>
<rect x="13.4666" y="236.823" width="13.4662" height="13.4662" fill="white"/>
<rect x="26.9321" y="223.356" width="13.4662" height="13.4662" fill="white"/>
<rect x="53.1562" y="236.823" width="13.4662" height="13.4662" fill="white"/>
<rect x="80.0884" y="236.823" width="13.4662" height="13.4662" fill="white"/>
<rect x="133.954" y="236.823" width="13.4662" height="13.4662" fill="white"/>
<rect x="174.352" y="236.823" width="13.4662" height="13.4662" fill="white"/>
<rect x="214.752" y="236.823" width="13.4662" height="13.4662" fill="white"/>
<rect x="214.752" y="223.356" width="13.4662" height="13.4662" fill="white"/>
<rect x="228.218" y="223.356" width="13.4662" height="13.4662" fill="white"/>
<rect x="241.684" y="236.525" width="13.4662" height="13.4662" fill="white"/>
<rect x="255.151" y="236.525" width="13.4662" height="13.4662" fill="white"/>
<rect x="26.9321" y="236.823" width="13.4662" height="13.4662" fill="white"/>
<rect x="40.3987" y="223.356" width="13.4662" height="13.4662" fill="white"/>
<rect x="80.0884" y="223.356" width="13.4662" height="13.4662" fill="white"/>
<rect x="93.5549" y="223.356" width="13.4662" height="13.4662" fill="white"/>
<rect x="107.021" y="223.356" width="13.4662" height="13.4662" fill="white"/>
<rect x="133.954" y="223.356" width="13.4662" height="13.4662" fill="white"/>
<rect x="147.419" y="223.356" width="13.4662" height="13.4662" fill="white"/>
<rect x="147.419" y="209.89" width="13.4662" height="13.4662" fill="white"/>
<rect x="160.886" y="209.89" width="13.4662" height="13.4662" fill="white"/>
<rect x="201.285" y="209.89" width="13.4662" height="13.4662" fill="white"/>
<rect x="187.819" y="196.424" width="13.4662" height="13.4662" fill="white"/>
<rect x="160.886" y="196.424" width="13.4662" height="13.4662" fill="white"/>
<rect x="228.218" y="196.424" width="13.4662" height="13.4662" fill="white"/>
<rect x="241.684" y="209.89" width="13.4662" height="13.4662" fill="white"/>
<rect x="254.74" y="222.648" width="13.8769" height="13.8769" fill="white"/>
<rect x="120.487" y="209.89" width="13.4662" height="13.4662" fill="white"/>
<rect x="133.954" y="196.424" width="13.4662" height="13.4662" fill="white"/>
<rect x="93.5549" y="209.89" width="13.4662" height="13.4662" fill="white"/>
<rect x="93.5549" y="196.424" width="13.4662" height="13.4662" fill="white"/>
<rect x="107.021" y="182.957" width="13.4662" height="13.4662" fill="white"/>
<rect x="133.954" y="182.957" width="13.4662" height="13.4662" fill="white"/>
<rect x="174.352" y="182.957" width="13.4662" height="13.4662" fill="white"/>
<rect x="160.886" y="156.025" width="13.4662" height="13.4662" fill="white"/>
<rect x="133.954" y="142.559" width="13.4662" height="13.4662" fill="white"/>
<rect x="121.196" y="129.093" width="13.4662" height="13.4662" fill="white"/>
<rect x="174.352" y="156.025" width="13.4662" height="13.4662" fill="white"/>
<rect x="214.752" y="182.957" width="13.4662" height="13.4662" fill="white"/>
<rect x="228.218" y="169.491" width="13.4662" height="13.4662" fill="white"/>
<rect x="241.684" y="182.957" width="13.4662" height="13.4662" fill="white"/>
<rect x="80.0884" y="196.424" width="13.4662" height="13.4662" fill="white"/>
<rect x="80.7974" y="169.491" width="13.4662" height="13.4662" fill="white"/>
<rect x="66.6218" y="156.025" width="13.4662" height="13.4662" fill="white"/>
<rect x="53.1562" y="142.559" width="13.4662" height="13.4662" fill="white"/>
<rect x="26.9321" y="129.093" width="13.4662" height="13.4662" fill="white"/>
<rect x="13.4666" y="156.025" width="13.4662" height="13.4662" fill="white"/>
<rect x="40.3987" y="169.491" width="13.4662" height="13.4662" fill="white"/>
<rect x="120.487" y="169.491" width="13.4662" height="13.4662" fill="white"/>
<rect x="107.021" y="156.025" width="13.4662" height="13.4662" fill="white"/>
<rect x="201.285" y="169.491" width="13.4662" height="13.4662" fill="white"/>
<rect x="201.285" y="142.559" width="13.4662" height="13.4662" fill="white"/>
<rect x="241.684" y="156.025" width="13.4662" height="13.4662" fill="white"/>
<rect x="255.15" y="129.093" width="13.4662" height="13.4662" fill="white"/>
<rect x="53.8652" y="196.424" width="13.4662" height="13.4662" fill="white"/>
<rect y="196.424" width="13.4662" height="13.4662" fill="white"/>
<rect x="66.6218" y="209.89" width="13.4662" height="13.4662" fill="white"/>
<rect x="40.3987" y="209.89" width="13.4662" height="13.4662" fill="white"/>
<rect x="13.4666" y="209.89" width="13.4662" height="13.4662" fill="white"/>
<rect x="13.4666" y="182.957" width="13.4662" height="13.4662" fill="white"/>
<rect x="26.9321" y="182.957" width="13.4662" height="13.4662" fill="white"/>
<rect x="67.3308" y="182.957" width="13.4662" height="13.4662" fill="white"/>
<rect y="209.89" width="13.4662" height="13.4662" fill="white"/>
<rect x="187.819" y="223.356" width="13.4662" height="13.4662" fill="white"/>
<rect x="66.6218" y="236.823" width="13.4662" height="13.4662" fill="white"/>
<rect x="120.487" y="236.823" width="13.4662" height="13.4662" fill="white"/>
<rect x="107.021" y="236.823" width="13.4662" height="13.4662" fill="white"/>
<rect x="160.886" y="236.823" width="13.4662" height="13.4662" fill="white"/>
<rect x="201.285" y="236.823" width="13.4662" height="13.4662" fill="white"/>
<rect x="268.616" y="236.538" width="13.47" height="13.47" fill="white"/>
<rect x="282.087" y="223.365" width="13.47" height="13.47" fill="white"/>
<rect x="282.087" y="236.836" width="13.47" height="13.47" fill="white"/>
<rect x="295.556" y="223.365" width="13.47" height="13.47" fill="white"/>
<rect x="321.787" y="236.836" width="13.47" height="13.47" fill="white"/>
<rect x="348.727" y="236.836" width="13.47" height="13.47" fill="white"/>
<rect x="295.556" y="236.836" width="13.47" height="13.47" fill="white"/>
<rect x="309.026" y="223.365" width="13.47" height="13.47" fill="white"/>
<rect x="348.727" y="223.365" width="13.47" height="13.47" fill="white"/>
<rect x="362.197" y="223.365" width="13.47" height="13.47" fill="white"/>
<rect x="362.197" y="209.895" width="13.47" height="13.47" fill="white"/>
<rect x="362.197" y="196.425" width="13.47" height="13.47" fill="white"/>
<rect x="348.727" y="196.425" width="13.47" height="13.47" fill="white"/>
<rect x="349.436" y="169.485" width="13.47" height="13.47" fill="white"/>
<rect x="335.257" y="156.015" width="13.47" height="13.47" fill="white"/>
<rect x="321.787" y="142.545" width="13.47" height="13.47" fill="white"/>
<rect x="295.556" y="129.076" width="13.47" height="13.47" fill="white"/>
<rect x="282.087" y="156.015" width="13.47" height="13.47" fill="white"/>
<rect x="309.026" y="169.485" width="13.47" height="13.47" fill="white"/>
<rect x="322.497" y="196.425" width="13.47" height="13.47" fill="white"/>
<rect x="268.616" y="196.425" width="13.47" height="13.47" fill="white"/>
<rect x="335.257" y="209.895" width="13.47" height="13.47" fill="white"/>
<rect x="309.026" y="209.895" width="13.47" height="13.47" fill="white"/>
<rect x="282.087" y="209.895" width="13.47" height="13.47" fill="white"/>
<rect x="282.087" y="182.955" width="13.47" height="13.47" fill="white"/>
<rect x="295.556" y="182.955" width="13.47" height="13.47" fill="white"/>
<rect x="335.966" y="182.955" width="13.47" height="13.47" fill="white"/>
<rect x="268.616" y="209.895" width="13.47" height="13.47" fill="white"/>
<rect x="335.257" y="236.836" width="13.47" height="13.47" fill="white"/>
</mask>
<g mask="url(#mask0_46_397)">
<rect y="128.484" width="375.666" height="121.918" fill="url(#paint0_linear_46_397)"/>
</g>
<mask id="mask1_46_397" style="mask-type:alpha" maskUnits="userSpaceOnUse" x="375" y="129" width="377" height="122">
<rect x="375.667" y="236.823" width="13.4662" height="13.4662" fill="white"/>
<rect x="389.133" y="223.356" width="13.4662" height="13.4662" fill="white"/>
<rect x="389.133" y="236.823" width="13.4662" height="13.4662" fill="white"/>
<rect x="402.599" y="223.356" width="13.4662" height="13.4662" fill="white"/>
<rect x="428.823" y="236.823" width="13.4662" height="13.4662" fill="white"/>
<rect x="455.755" y="236.823" width="13.4662" height="13.4662" fill="white"/>
<rect x="509.62" y="236.823" width="13.4662" height="13.4662" fill="white"/>
<rect x="550.019" y="236.823" width="13.4662" height="13.4662" fill="white"/>
<rect x="590.418" y="236.823" width="13.4662" height="13.4662" fill="white"/>
<rect x="590.418" y="223.356" width="13.4662" height="13.4662" fill="white"/>
<rect x="603.884" y="223.356" width="13.4662" height="13.4662" fill="white"/>
<rect x="617.35" y="236.525" width="13.4662" height="13.4662" fill="white"/>
<rect x="630.817" y="236.525" width="13.4662" height="13.4662" fill="white"/>
<rect x="402.599" y="236.823" width="13.4662" height="13.4662" fill="white"/>
<rect x="416.065" y="223.356" width="13.4662" height="13.4662" fill="white"/>
<rect x="455.755" y="223.356" width="13.4662" height="13.4662" fill="white"/>
<rect x="469.221" y="223.356" width="13.4662" height="13.4662" fill="white"/>
<rect x="482.687" y="223.356" width="13.4662" height="13.4662" fill="white"/>
<rect x="509.62" y="223.356" width="13.4662" height="13.4662" fill="white"/>
<rect x="523.086" y="223.356" width="13.4662" height="13.4662" fill="white"/>
<rect x="523.086" y="209.89" width="13.4662" height="13.4662" fill="white"/>
<rect x="536.552" y="209.89" width="13.4662" height="13.4662" fill="white"/>
<rect x="576.952" y="209.89" width="13.4662" height="13.4662" fill="white"/>
<rect x="563.485" y="196.424" width="13.4662" height="13.4662" fill="white"/>
<rect x="536.552" y="196.424" width="13.4662" height="13.4662" fill="white"/>
<rect x="603.884" y="196.424" width="13.4662" height="13.4662" fill="white"/>
<rect x="617.351" y="209.89" width="13.4662" height="13.4662" fill="white"/>
<rect x="630.406" y="222.648" width="13.8769" height="13.8769" fill="white"/>
<rect x="496.154" y="209.89" width="13.4662" height="13.4662" fill="white"/>
<rect x="509.62" y="196.424" width="13.4662" height="13.4662" fill="white"/>
<rect x="469.221" y="209.89" width="13.4662" height="13.4662" fill="white"/>
<rect x="469.221" y="196.424" width="13.4662" height="13.4662" fill="white"/>
<rect x="482.687" y="182.957" width="13.4662" height="13.4662" fill="white"/>
<rect x="509.62" y="182.957" width="13.4662" height="13.4662" fill="white"/>
<rect x="550.019" y="182.957" width="13.4662" height="13.4662" fill="white"/>
<rect x="536.552" y="156.025" width="13.4662" height="13.4662" fill="white"/>
<rect x="509.62" y="142.559" width="13.4662" height="13.4662" fill="white"/>
<rect x="496.863" y="129.093" width="13.4662" height="13.4662" fill="white"/>
<rect x="550.019" y="156.025" width="13.4662" height="13.4662" fill="white"/>
<rect x="590.418" y="182.957" width="13.4662" height="13.4662" fill="white"/>
<rect x="603.884" y="169.491" width="13.4662" height="13.4662" fill="white"/>
<rect x="617.351" y="182.957" width="13.4662" height="13.4662" fill="white"/>
<rect x="455.755" y="196.424" width="13.4662" height="13.4662" fill="white"/>
<rect x="456.464" y="169.491" width="13.4662" height="13.4662" fill="white"/>
<rect x="442.288" y="156.025" width="13.4662" height="13.4662" fill="white"/>
<rect x="428.823" y="142.559" width="13.4662" height="13.4662" fill="white"/>
<rect x="402.599" y="129.093" width="13.4662" height="13.4662" fill="white"/>
<rect x="389.133" y="156.025" width="13.4662" height="13.4662" fill="white"/>
<rect x="416.065" y="169.491" width="13.4662" height="13.4662" fill="white"/>
<rect x="496.154" y="169.491" width="13.4662" height="13.4662" fill="white"/>
<rect x="482.687" y="156.025" width="13.4662" height="13.4662" fill="white"/>
<rect x="576.952" y="169.491" width="13.4662" height="13.4662" fill="white"/>
<rect x="576.952" y="142.559" width="13.4662" height="13.4662" fill="white"/>
<rect x="617.351" y="156.025" width="13.4662" height="13.4662" fill="white"/>
<rect x="630.817" y="129.093" width="13.4662" height="13.4662" fill="white"/>
<rect x="429.532" y="196.424" width="13.4662" height="13.4662" fill="white"/>
<rect x="375.667" y="196.424" width="13.4662" height="13.4662" fill="white"/>
<rect x="442.288" y="209.89" width="13.4662" height="13.4662" fill="white"/>
<rect x="416.065" y="209.89" width="13.4662" height="13.4662" fill="white"/>
<rect x="389.133" y="209.89" width="13.4662" height="13.4662" fill="white"/>
<rect x="389.133" y="182.957" width="13.4662" height="13.4662" fill="white"/>
<rect x="402.599" y="182.957" width="13.4662" height="13.4662" fill="white"/>
<rect x="442.997" y="182.957" width="13.4662" height="13.4662" fill="white"/>
<rect x="375.667" y="209.89" width="13.4662" height="13.4662" fill="white"/>
<rect x="563.485" y="223.356" width="13.4662" height="13.4662" fill="white"/>
<rect x="442.288" y="236.823" width="13.4662" height="13.4662" fill="white"/>
<rect x="496.154" y="236.823" width="13.4662" height="13.4662" fill="white"/>
<rect x="482.687" y="236.823" width="13.4662" height="13.4662" fill="white"/>
<rect x="536.552" y="236.823" width="13.4662" height="13.4662" fill="white"/>
<rect x="576.952" y="236.823" width="13.4662" height="13.4662" fill="white"/>
<rect x="644.283" y="236.538" width="13.47" height="13.47" fill="white"/>
<rect x="657.753" y="223.365" width="13.47" height="13.47" fill="white"/>
<rect x="657.753" y="236.836" width="13.47" height="13.47" fill="white"/>
<rect x="671.222" y="223.365" width="13.47" height="13.47" fill="white"/>
<rect x="697.454" y="236.836" width="13.47" height="13.47" fill="white"/>
<rect x="724.393" y="236.836" width="13.47" height="13.47" fill="white"/>
<rect x="671.222" y="236.836" width="13.47" height="13.47" fill="white"/>
<rect x="684.693" y="223.365" width="13.47" height="13.47" fill="white"/>
<rect x="724.393" y="223.365" width="13.47" height="13.47" fill="white"/>
<rect x="737.864" y="223.365" width="13.47" height="13.47" fill="white"/>
<rect x="737.864" y="209.895" width="13.47" height="13.47" fill="white"/>
<rect x="737.864" y="196.425" width="13.47" height="13.47" fill="white"/>
<rect x="724.393" y="196.425" width="13.47" height="13.47" fill="white"/>
<rect x="725.103" y="169.485" width="13.47" height="13.47" fill="white"/>
<rect x="710.923" y="156.015" width="13.47" height="13.47" fill="white"/>
<rect x="697.454" y="142.545" width="13.47" height="13.47" fill="white"/>
<rect x="671.222" y="129.076" width="13.47" height="13.47" fill="white"/>
<rect x="657.753" y="156.015" width="13.47" height="13.47" fill="white"/>
<rect x="684.693" y="169.485" width="13.47" height="13.47" fill="white"/>
<rect x="698.163" y="196.425" width="13.47" height="13.47" fill="white"/>
<rect x="644.283" y="196.425" width="13.47" height="13.47" fill="white"/>
<rect x="710.923" y="209.895" width="13.47" height="13.47" fill="white"/>
<rect x="684.693" y="209.895" width="13.47" height="13.47" fill="white"/>
<rect x="657.753" y="209.895" width="13.47" height="13.47" fill="white"/>
<rect x="657.753" y="182.955" width="13.47" height="13.47" fill="white"/>
<rect x="671.222" y="182.955" width="13.47" height="13.47" fill="white"/>
<rect x="711.633" y="182.955" width="13.47" height="13.47" fill="white"/>
<rect x="644.283" y="209.895" width="13.47" height="13.47" fill="white"/>
<rect x="710.923" y="236.836" width="13.47" height="13.47" fill="white"/>
</mask>
<g mask="url(#mask1_46_397)">
<rect x="375.667" y="128.484" width="375.666" height="121.918" fill="url(#paint1_linear_46_397)"/>
</g>
<mask id="mask2_46_397" style="mask-type:alpha" maskUnits="userSpaceOnUse" x="751" y="129" width="376" height="122">
<rect x="751.333" y="236.823" width="13.4662" height="13.4662" fill="white"/>
<rect x="764.799" y="223.356" width="13.4662" height="13.4662" fill="white"/>
<rect x="764.799" y="236.823" width="13.4662" height="13.4662" fill="white"/>
<rect x="778.265" y="223.356" width="13.4662" height="13.4662" fill="white"/>
<rect x="804.489" y="236.823" width="13.4662" height="13.4662" fill="white"/>
<rect x="831.421" y="236.823" width="13.4662" height="13.4662" fill="white"/>
<rect x="885.287" y="236.823" width="13.4662" height="13.4662" fill="white"/>
<rect x="925.685" y="236.823" width="13.4662" height="13.4662" fill="white"/>
<rect x="966.085" y="236.823" width="13.4662" height="13.4662" fill="white"/>
<rect x="966.085" y="223.356" width="13.4662" height="13.4662" fill="white"/>
<rect x="979.55" y="223.356" width="13.4662" height="13.4662" fill="white"/>
<rect x="993.016" y="236.525" width="13.4662" height="13.4662" fill="white"/>
<rect x="1006.48" y="236.525" width="13.4662" height="13.4662" fill="white"/>
<rect x="778.265" y="236.823" width="13.4662" height="13.4662" fill="white"/>
<rect x="791.731" y="223.356" width="13.4662" height="13.4662" fill="white"/>
<rect x="831.421" y="223.356" width="13.4662" height="13.4662" fill="white"/>
<rect x="844.888" y="223.356" width="13.4662" height="13.4662" fill="white"/>
<rect x="858.354" y="223.356" width="13.4662" height="13.4662" fill="white"/>
<rect x="885.287" y="223.356" width="13.4662" height="13.4662" fill="white"/>
<rect x="898.752" y="223.356" width="13.4662" height="13.4662" fill="white"/>
<rect x="898.752" y="209.89" width="13.4662" height="13.4662" fill="white"/>
<rect x="912.219" y="209.89" width="13.4662" height="13.4662" fill="white"/>
<rect x="952.618" y="209.89" width="13.4662" height="13.4662" fill="white"/>
<rect x="939.152" y="196.424" width="13.4662" height="13.4662" fill="white"/>
<rect x="912.219" y="196.424" width="13.4662" height="13.4662" fill="white"/>
<rect x="979.55" y="196.424" width="13.4662" height="13.4662" fill="white"/>
<rect x="993.017" y="209.89" width="13.4662" height="13.4662" fill="white"/>
<rect x="1006.07" y="222.648" width="13.8769" height="13.8769" fill="white"/>
<rect x="871.82" y="209.89" width="13.4662" height="13.4662" fill="white"/>
<rect x="885.287" y="196.424" width="13.4662" height="13.4662" fill="white"/>
<rect x="844.888" y="209.89" width="13.4662" height="13.4662" fill="white"/>
<rect x="844.888" y="196.424" width="13.4662" height="13.4662" fill="white"/>
<rect x="858.354" y="182.957" width="13.4662" height="13.4662" fill="white"/>
<rect x="885.287" y="182.957" width="13.4662" height="13.4662" fill="white"/>
<rect x="925.685" y="182.957" width="13.4662" height="13.4662" fill="white"/>
<rect x="912.219" y="156.025" width="13.4662" height="13.4662" fill="white"/>
<rect x="885.287" y="142.559" width="13.4662" height="13.4662" fill="white"/>
<rect x="872.529" y="129.093" width="13.4662" height="13.4662" fill="white"/>
<rect x="925.685" y="156.025" width="13.4662" height="13.4662" fill="white"/>
<rect x="966.085" y="182.957" width="13.4662" height="13.4662" fill="white"/>
<rect x="979.55" y="169.491" width="13.4662" height="13.4662" fill="white"/>
<rect x="993.017" y="182.957" width="13.4662" height="13.4662" fill="white"/>
<rect x="831.421" y="196.424" width="13.4662" height="13.4662" fill="white"/>
<rect x="832.13" y="169.491" width="13.4662" height="13.4662" fill="white"/>
<rect x="817.955" y="156.025" width="13.4662" height="13.4662" fill="white"/>
<rect x="804.489" y="142.559" width="13.4662" height="13.4662" fill="white"/>
<rect x="778.265" y="129.093" width="13.4662" height="13.4662" fill="white"/>
<rect x="764.799" y="156.025" width="13.4662" height="13.4662" fill="white"/>
<rect x="791.731" y="169.491" width="13.4662" height="13.4662" fill="white"/>
<rect x="871.82" y="169.491" width="13.4662" height="13.4662" fill="white"/>
<rect x="858.354" y="156.025" width="13.4662" height="13.4662" fill="white"/>
<rect x="952.618" y="169.491" width="13.4662" height="13.4662" fill="white"/>
<rect x="952.618" y="142.559" width="13.4662" height="13.4662" fill="white"/>
<rect x="993.017" y="156.025" width="13.4662" height="13.4662" fill="white"/>
<rect x="1006.48" y="129.093" width="13.4662" height="13.4662" fill="white"/>
<rect x="805.198" y="196.424" width="13.4662" height="13.4662" fill="white"/>
<rect x="751.333" y="196.424" width="13.4662" height="13.4662" fill="white"/>
<rect x="817.955" y="209.89" width="13.4662" height="13.4662" fill="white"/>
<rect x="791.731" y="209.89" width="13.4662" height="13.4662" fill="white"/>
<rect x="764.799" y="209.89" width="13.4662" height="13.4662" fill="white"/>
<rect x="764.799" y="182.957" width="13.4662" height="13.4662" fill="white"/>
<rect x="778.265" y="182.957" width="13.4662" height="13.4662" fill="white"/>
<rect x="818.664" y="182.957" width="13.4662" height="13.4662" fill="white"/>
<rect x="751.333" y="209.89" width="13.4662" height="13.4662" fill="white"/>
<rect x="939.152" y="223.356" width="13.4662" height="13.4662" fill="white"/>
<rect x="817.955" y="236.823" width="13.4662" height="13.4662" fill="white"/>
<rect x="871.82" y="236.823" width="13.4662" height="13.4662" fill="white"/>
<rect x="858.354" y="236.823" width="13.4662" height="13.4662" fill="white"/>
<rect x="912.219" y="236.823" width="13.4662" height="13.4662" fill="white"/>
<rect x="952.618" y="236.823" width="13.4662" height="13.4662" fill="white"/>
<rect x="1019.95" y="236.538" width="13.47" height="13.47" fill="white"/>
<rect x="1033.42" y="223.365" width="13.47" height="13.47" fill="white"/>
<rect x="1033.42" y="236.836" width="13.47" height="13.47" fill="white"/>
<rect x="1046.89" y="223.365" width="13.47" height="13.47" fill="white"/>
<rect x="1073.12" y="236.836" width="13.47" height="13.47" fill="white"/>
<rect x="1046.89" y="236.836" width="13.47" height="13.47" fill="white"/>
<rect x="1060.36" y="223.365" width="13.47" height="13.47" fill="white"/>
<rect x="1086.59" y="156.015" width="13.47" height="13.47" fill="white"/>
<rect x="1073.12" y="142.545" width="13.47" height="13.47" fill="white"/>
<rect x="1046.89" y="129.076" width="13.47" height="13.47" fill="white"/>
<rect x="1033.42" y="156.015" width="13.47" height="13.47" fill="white"/>
<rect x="1060.36" y="169.485" width="13.47" height="13.47" fill="white"/>
<rect x="1073.83" y="196.425" width="13.47" height="13.47" fill="white"/>
<rect x="1019.95" y="196.425" width="13.47" height="13.47" fill="white"/>
<rect x="1086.59" y="209.895" width="13.47" height="13.47" fill="white"/>
<rect x="1060.36" y="209.895" width="13.47" height="13.47" fill="white"/>
<rect x="1033.42" y="209.895" width="13.47" height="13.47" fill="white"/>
<rect x="1033.42" y="182.955" width="13.47" height="13.47" fill="white"/>
<rect x="1046.89" y="182.955" width="13.47" height="13.47" fill="white"/>
<rect x="1087.3" y="182.955" width="13.47" height="13.47" fill="white"/>
<rect x="1019.95" y="209.895" width="13.47" height="13.47" fill="white"/>
<rect x="1086.59" y="236.836" width="13.47" height="13.47" fill="white"/>
</mask>
<g mask="url(#mask2_46_397)">
<rect x="751.333" y="128.484" width="375.666" height="121.918" fill="url(#paint2_linear_46_397)"/>
</g>
</g>
<defs>
<linearGradient id="paint0_linear_46_397" x1="187.833" y1="128.484" x2="187.833" y2="250.402" gradientUnits="userSpaceOnUse">
<stop stop-color="white" stop-opacity="0"/>
<stop offset="1" stop-color="white" stop-opacity="0.05"/>
</linearGradient>
<linearGradient id="paint1_linear_46_397" x1="563.5" y1="128.484" x2="563.5" y2="250.402" gradientUnits="userSpaceOnUse">
<stop stop-color="white" stop-opacity="0"/>
<stop offset="1" stop-color="white" stop-opacity="0.05"/>
</linearGradient>
<linearGradient id="paint2_linear_46_397" x1="939.166" y1="128.484" x2="939.166" y2="250.402" gradientUnits="userSpaceOnUse">
<stop stop-color="white" stop-opacity="0"/>
<stop offset="1" stop-color="white" stop-opacity="0.05"/>
</linearGradient>
<clipPath id="clip0_46_397">
<rect width="1100" height="250" fill="white"/>
</clipPath>
</defs>
</svg>
