<svg width="1100" height="250" viewBox="0 0 1100 250" fill="none" xmlns="http://www.w3.org/2000/svg">
<g clip-path="url(#clip0_46_1021)">
<mask id="mask0_46_1021" style="mask-type:alpha" maskUnits="userSpaceOnUse" x="0" y="182" width="376" height="69">
<rect y="236.823" width="13.4662" height="13.4662" fill="white"/>
<rect x="13.4668" y="223.356" width="13.4662" height="13.4662" fill="white"/>
<rect x="13.4668" y="236.823" width="13.4662" height="13.4662" fill="white"/>
<rect x="53.1562" y="236.823" width="13.4662" height="13.4662" fill="white"/>
<rect x="80.0884" y="236.823" width="13.4662" height="13.4662" fill="white"/>
<rect x="133.954" y="236.823" width="13.4662" height="13.4662" fill="white"/>
<rect x="174.352" y="236.823" width="13.4662" height="13.4662" fill="white"/>
<rect x="214.752" y="236.823" width="13.4662" height="13.4662" fill="white"/>
<rect x="214.752" y="223.356" width="13.4662" height="13.4662" fill="white"/>
<rect x="228.217" y="223.356" width="13.4662" height="13.4662" fill="white"/>
<rect x="241.684" y="236.525" width="13.4662" height="13.4662" fill="white"/>
<rect x="255.151" y="236.525" width="13.4662" height="13.4662" fill="white"/>
<rect x="26.9321" y="236.823" width="13.4662" height="13.4662" fill="white"/>
<rect x="40.3984" y="223.356" width="13.4662" height="13.4662" fill="white"/>
<rect x="80.0884" y="223.356" width="13.4662" height="13.4662" fill="white"/>
<rect x="93.5552" y="223.356" width="13.4662" height="13.4662" fill="white"/>
<rect x="107.021" y="223.356" width="13.4662" height="13.4662" fill="white"/>
<rect x="133.954" y="223.356" width="13.4662" height="13.4662" fill="white"/>
<rect x="147.419" y="223.356" width="13.4662" height="13.4662" fill="white"/>
<rect x="147.419" y="209.89" width="13.4662" height="13.4662" fill="white"/>
<rect x="187.819" y="196.424" width="13.4662" height="13.4662" fill="white"/>
<rect x="160.886" y="196.424" width="13.4662" height="13.4662" fill="white"/>
<rect x="241.684" y="209.89" width="13.4662" height="13.4662" fill="white"/>
<rect x="254.74" y="222.648" width="13.8769" height="13.8769" fill="white"/>
<rect x="120.487" y="209.89" width="13.4662" height="13.4662" fill="white"/>
<rect x="133.954" y="196.424" width="13.4662" height="13.4662" fill="white"/>
<rect x="93.5552" y="209.89" width="13.4662" height="13.4662" fill="white"/>
<rect x="53.8652" y="196.424" width="13.4662" height="13.4662" fill="white"/>
<rect y="196.424" width="13.4662" height="13.4662" fill="white"/>
<rect x="66.6221" y="209.89" width="13.4662" height="13.4662" fill="white"/>
<rect x="40.3984" y="209.89" width="13.4662" height="13.4662" fill="white"/>
<rect y="209.89" width="13.4662" height="13.4662" fill="white"/>
<rect x="187.819" y="223.356" width="13.4662" height="13.4662" fill="white"/>
<rect x="66.6221" y="236.823" width="13.4662" height="13.4662" fill="white"/>
<rect x="120.487" y="236.823" width="13.4662" height="13.4662" fill="white"/>
<rect x="107.021" y="236.823" width="13.4662" height="13.4662" fill="white"/>
<rect x="160.886" y="236.823" width="13.4662" height="13.4662" fill="white"/>
<rect x="201.285" y="236.823" width="13.4662" height="13.4662" fill="white"/>
<rect x="268.616" y="236.538" width="13.47" height="13.47" fill="white"/>
<rect x="282.087" y="236.836" width="13.47" height="13.47" fill="white"/>
<rect x="295.556" y="223.365" width="13.47" height="13.47" fill="white"/>
<rect x="321.787" y="236.836" width="13.47" height="13.47" fill="white"/>
<rect x="348.727" y="236.836" width="13.47" height="13.47" fill="white"/>
<rect x="295.556" y="236.836" width="13.47" height="13.47" fill="white"/>
<rect x="309.026" y="223.365" width="13.47" height="13.47" fill="white"/>
<rect x="348.727" y="223.365" width="13.47" height="13.47" fill="white"/>
<rect x="362.197" y="223.365" width="13.47" height="13.47" fill="white"/>
<rect x="362.197" y="209.895" width="13.47" height="13.47" fill="white"/>
<rect x="348.727" y="196.425" width="13.47" height="13.47" fill="white"/>
<rect x="322.497" y="196.425" width="13.47" height="13.47" fill="white"/>
<rect x="335.256" y="209.895" width="13.47" height="13.47" fill="white"/>
<rect x="309.026" y="209.895" width="13.47" height="13.47" fill="white"/>
<rect x="282.087" y="209.895" width="13.47" height="13.47" fill="white"/>
<rect x="295.556" y="182.955" width="13.47" height="13.47" fill="white"/>
<rect x="335.256" y="236.836" width="13.47" height="13.47" fill="white"/>
</mask>
<g mask="url(#mask0_46_1021)">
<rect y="128" width="376" height="122" fill="url(#paint0_linear_46_1021)"/>
</g>
<mask id="mask1_46_1021" style="mask-type:alpha" maskUnits="userSpaceOnUse" x="376" y="182" width="376" height="69">
<rect x="376" y="236.823" width="13.4662" height="13.4662" fill="white"/>
<rect x="389.467" y="223.356" width="13.4662" height="13.4662" fill="white"/>
<rect x="389.467" y="236.823" width="13.4662" height="13.4662" fill="white"/>
<rect x="429.156" y="236.823" width="13.4662" height="13.4662" fill="white"/>
<rect x="456.088" y="236.823" width="13.4662" height="13.4662" fill="white"/>
<rect x="509.954" y="236.823" width="13.4662" height="13.4662" fill="white"/>
<rect x="550.352" y="236.823" width="13.4662" height="13.4662" fill="white"/>
<rect x="590.752" y="236.823" width="13.4662" height="13.4662" fill="white"/>
<rect x="590.752" y="223.356" width="13.4662" height="13.4662" fill="white"/>
<rect x="604.217" y="223.356" width="13.4662" height="13.4662" fill="white"/>
<rect x="617.684" y="236.525" width="13.4662" height="13.4662" fill="white"/>
<rect x="631.151" y="236.525" width="13.4662" height="13.4662" fill="white"/>
<rect x="402.932" y="236.823" width="13.4662" height="13.4662" fill="white"/>
<rect x="416.398" y="223.356" width="13.4662" height="13.4662" fill="white"/>
<rect x="456.088" y="223.356" width="13.4662" height="13.4662" fill="white"/>
<rect x="469.555" y="223.356" width="13.4662" height="13.4662" fill="white"/>
<rect x="483.021" y="223.356" width="13.4662" height="13.4662" fill="white"/>
<rect x="509.954" y="223.356" width="13.4662" height="13.4662" fill="white"/>
<rect x="523.419" y="223.356" width="13.4662" height="13.4662" fill="white"/>
<rect x="523.419" y="209.89" width="13.4662" height="13.4662" fill="white"/>
<rect x="563.819" y="196.424" width="13.4662" height="13.4662" fill="white"/>
<rect x="536.886" y="196.424" width="13.4662" height="13.4662" fill="white"/>
<rect x="617.684" y="209.89" width="13.4662" height="13.4662" fill="white"/>
<rect x="630.74" y="222.648" width="13.8769" height="13.8769" fill="white"/>
<rect x="496.487" y="209.89" width="13.4662" height="13.4662" fill="white"/>
<rect x="509.954" y="196.424" width="13.4662" height="13.4662" fill="white"/>
<rect x="469.555" y="209.89" width="13.4662" height="13.4662" fill="white"/>
<rect x="429.865" y="196.424" width="13.4662" height="13.4662" fill="white"/>
<rect x="376" y="196.424" width="13.4662" height="13.4662" fill="white"/>
<rect x="442.622" y="209.89" width="13.4662" height="13.4662" fill="white"/>
<rect x="416.398" y="209.89" width="13.4662" height="13.4662" fill="white"/>
<rect x="376" y="209.89" width="13.4662" height="13.4662" fill="white"/>
<rect x="563.819" y="223.356" width="13.4662" height="13.4662" fill="white"/>
<rect x="442.622" y="236.823" width="13.4662" height="13.4662" fill="white"/>
<rect x="496.487" y="236.823" width="13.4662" height="13.4662" fill="white"/>
<rect x="483.021" y="236.823" width="13.4662" height="13.4662" fill="white"/>
<rect x="536.886" y="236.823" width="13.4662" height="13.4662" fill="white"/>
<rect x="577.285" y="236.823" width="13.4662" height="13.4662" fill="white"/>
<rect x="644.616" y="236.538" width="13.47" height="13.47" fill="white"/>
<rect x="658.087" y="236.836" width="13.47" height="13.47" fill="white"/>
<rect x="671.556" y="223.365" width="13.47" height="13.47" fill="white"/>
<rect x="697.787" y="236.836" width="13.47" height="13.47" fill="white"/>
<rect x="724.727" y="236.836" width="13.47" height="13.47" fill="white"/>
<rect x="671.556" y="236.836" width="13.47" height="13.47" fill="white"/>
<rect x="685.026" y="223.365" width="13.47" height="13.47" fill="white"/>
<rect x="724.727" y="223.365" width="13.47" height="13.47" fill="white"/>
<rect x="738.197" y="223.365" width="13.47" height="13.47" fill="white"/>
<rect x="738.197" y="209.895" width="13.47" height="13.47" fill="white"/>
<rect x="724.727" y="196.425" width="13.47" height="13.47" fill="white"/>
<rect x="698.497" y="196.425" width="13.47" height="13.47" fill="white"/>
<rect x="711.256" y="209.895" width="13.47" height="13.47" fill="white"/>
<rect x="685.026" y="209.895" width="13.47" height="13.47" fill="white"/>
<rect x="658.087" y="209.895" width="13.47" height="13.47" fill="white"/>
<rect x="671.556" y="182.955" width="13.47" height="13.47" fill="white"/>
<rect x="711.256" y="236.836" width="13.47" height="13.47" fill="white"/>
</mask>
<g mask="url(#mask1_46_1021)">
<rect x="376" y="128" width="376" height="122" fill="url(#paint1_linear_46_1021)"/>
</g>
<mask id="mask2_46_1021" style="mask-type:alpha" maskUnits="userSpaceOnUse" x="751" y="182" width="376" height="69">
<rect x="751" y="236.823" width="13.4662" height="13.4662" fill="white"/>
<rect x="764.467" y="223.356" width="13.4662" height="13.4662" fill="white"/>
<rect x="764.467" y="236.823" width="13.4662" height="13.4662" fill="white"/>
<rect x="804.156" y="236.823" width="13.4662" height="13.4662" fill="white"/>
<rect x="831.088" y="236.823" width="13.4662" height="13.4662" fill="white"/>
<rect x="884.954" y="236.823" width="13.4662" height="13.4662" fill="white"/>
<rect x="925.352" y="236.823" width="13.4662" height="13.4662" fill="white"/>
<rect x="965.752" y="236.823" width="13.4662" height="13.4662" fill="white"/>
<rect x="965.752" y="223.356" width="13.4662" height="13.4662" fill="white"/>
<rect x="979.217" y="223.356" width="13.4662" height="13.4662" fill="white"/>
<rect x="992.684" y="236.525" width="13.4662" height="13.4662" fill="white"/>
<rect x="1006.15" y="236.525" width="13.4662" height="13.4662" fill="white"/>
<rect x="777.932" y="236.823" width="13.4662" height="13.4662" fill="white"/>
<rect x="791.398" y="223.356" width="13.4662" height="13.4662" fill="white"/>
<rect x="831.088" y="223.356" width="13.4662" height="13.4662" fill="white"/>
<rect x="844.555" y="223.356" width="13.4662" height="13.4662" fill="white"/>
<rect x="858.021" y="223.356" width="13.4662" height="13.4662" fill="white"/>
<rect x="884.954" y="223.356" width="13.4662" height="13.4662" fill="white"/>
<rect x="898.419" y="223.356" width="13.4662" height="13.4662" fill="white"/>
<rect x="898.419" y="209.89" width="13.4662" height="13.4662" fill="white"/>
<rect x="938.819" y="196.424" width="13.4662" height="13.4662" fill="white"/>
<rect x="911.886" y="196.424" width="13.4662" height="13.4662" fill="white"/>
<rect x="992.684" y="209.89" width="13.4662" height="13.4662" fill="white"/>
<rect x="1005.74" y="222.648" width="13.8769" height="13.8769" fill="white"/>
<rect x="871.487" y="209.89" width="13.4662" height="13.4662" fill="white"/>
<rect x="884.954" y="196.424" width="13.4662" height="13.4662" fill="white"/>
<rect x="844.555" y="209.89" width="13.4662" height="13.4662" fill="white"/>
<rect x="804.865" y="196.424" width="13.4662" height="13.4662" fill="white"/>
<rect x="751" y="196.424" width="13.4662" height="13.4662" fill="white"/>
<rect x="817.622" y="209.89" width="13.4662" height="13.4662" fill="white"/>
<rect x="791.398" y="209.89" width="13.4662" height="13.4662" fill="white"/>
<rect x="751" y="209.89" width="13.4662" height="13.4662" fill="white"/>
<rect x="938.819" y="223.356" width="13.4662" height="13.4662" fill="white"/>
<rect x="817.622" y="236.823" width="13.4662" height="13.4662" fill="white"/>
<rect x="871.487" y="236.823" width="13.4662" height="13.4662" fill="white"/>
<rect x="858.021" y="236.823" width="13.4662" height="13.4662" fill="white"/>
<rect x="911.886" y="236.823" width="13.4662" height="13.4662" fill="white"/>
<rect x="952.285" y="236.823" width="13.4662" height="13.4662" fill="white"/>
<rect x="1019.62" y="236.538" width="13.47" height="13.47" fill="white"/>
<rect x="1033.09" y="236.836" width="13.47" height="13.47" fill="white"/>
<rect x="1046.56" y="223.365" width="13.47" height="13.47" fill="white"/>
<rect x="1072.79" y="236.836" width="13.47" height="13.47" fill="white"/>
<rect x="1099.73" y="236.836" width="13.47" height="13.47" fill="white"/>
<rect x="1046.56" y="236.836" width="13.47" height="13.47" fill="white"/>
<rect x="1060.03" y="223.365" width="13.47" height="13.47" fill="white"/>
<rect x="1099.73" y="223.365" width="13.47" height="13.47" fill="white"/>
<rect x="1099.73" y="196.425" width="13.47" height="13.47" fill="white"/>
<rect x="1073.5" y="196.425" width="13.47" height="13.47" fill="white"/>
<rect x="1086.26" y="209.895" width="13.47" height="13.47" fill="white"/>
<rect x="1060.03" y="209.895" width="13.47" height="13.47" fill="white"/>
<rect x="1033.09" y="209.895" width="13.47" height="13.47" fill="white"/>
<rect x="1046.56" y="182.955" width="13.47" height="13.47" fill="white"/>
<rect x="1086.26" y="236.836" width="13.47" height="13.47" fill="white"/>
</mask>
<g mask="url(#mask2_46_1021)">
<rect x="751" y="128" width="376" height="122" fill="url(#paint2_linear_46_1021)"/>
</g>
</g>
<defs>
<linearGradient id="paint0_linear_46_1021" x1="188" y1="128" x2="188" y2="250" gradientUnits="userSpaceOnUse">
<stop stop-color="#1500FF" stop-opacity="0"/>
<stop offset="1" stop-color="#1500FF" stop-opacity="0.2"/>
</linearGradient>
<linearGradient id="paint1_linear_46_1021" x1="564" y1="128" x2="564" y2="250" gradientUnits="userSpaceOnUse">
<stop stop-color="#1500FF" stop-opacity="0"/>
<stop offset="1" stop-color="#1500FF" stop-opacity="0.2"/>
</linearGradient>
<linearGradient id="paint2_linear_46_1021" x1="939" y1="128" x2="939" y2="250" gradientUnits="userSpaceOnUse">
<stop stop-color="#1500FF" stop-opacity="0"/>
<stop offset="1" stop-color="#1500FF" stop-opacity="0.2"/>
</linearGradient>
<clipPath id="clip0_46_1021">
<rect width="1100" height="250" fill="white"/>
</clipPath>
</defs>
</svg>
