<svg width="490" height="259" viewBox="0 0 490 259" fill="none" xmlns="http://www.w3.org/2000/svg">
<path d="M233.788 24.185L298.506 57.1494L402.284 37.8455L388.277 86.8132L478.442 105.028L393.915 141.314L417.65 186.378L312.118 188.727L255.519 234.241L190.801 201.277L87.0228 220.581L101.03 171.613L10.865 153.398L95.3916 117.112L71.6573 72.0485L177.189 69.6995L233.788 24.185Z" fill="#5900FF"/>
<path d="M162.571 154.1L159.353 123.016L178.004 121.085L178.647 127.302L184.864 126.658L186.795 145.309L180.578 145.952L181.221 152.169L162.571 154.1ZM166.857 134.806L179.042 133.544L178.399 127.328L166.214 128.589L166.857 134.806ZM168.144 147.239L180.329 145.978L179.686 139.761L167.501 141.023L168.144 147.239ZM206.088 149.595L205.445 143.378L199.228 144.022L197.298 125.371L203.514 124.728L202.871 118.511L215.304 117.224L215.948 123.441L222.165 122.797L224.095 141.447L217.879 142.091L218.522 148.308L206.088 149.595ZM205.419 143.129L217.853 141.842L215.974 123.689L203.54 124.976L205.419 143.129ZM243.389 145.734L242.746 139.517L236.529 140.16L234.598 121.51L240.815 120.866L240.171 114.65L252.605 113.363L253.249 119.579L259.465 118.936L261.396 137.586L255.179 138.23L255.823 144.447L243.389 145.734ZM242.72 139.268L255.153 137.981L253.274 119.828L240.841 121.115L242.72 139.268ZM274.473 142.516L271.255 111.432L277.472 110.788L278.116 117.005L284.332 116.362L284.976 122.578L291.193 121.935L291.836 128.152L285.62 128.795L284.976 122.578L278.759 123.222L280.69 141.872L274.473 142.516ZM299.34 139.942L297.41 121.291L291.193 121.935L290.549 115.718L296.766 115.075L296.122 108.858L302.339 108.214L305.557 139.298L299.34 139.942ZM316.703 125.578L314.773 106.927L320.99 106.284L322.92 124.934L316.703 125.578ZM317.991 138.011L317.347 131.794L323.564 131.151L324.207 137.368L317.991 138.011Z" fill="white"/>
<path d="M292.73 74.1825L374.941 59.204L364.951 92.0666L363.33 97.4018L368.809 98.4344L430.594 110.076L372.501 134.119L367.348 136.251L370.028 141.142L386.533 171.263L302.997 173.431L301.368 173.474L300.077 174.468L253.144 210.598L199.809 184.84L198.342 184.132L196.738 184.424L114.527 199.402L124.517 166.539L126.139 161.204L120.659 160.172L58.8743 148.53L116.967 124.487L122.12 122.355L119.44 117.464L102.935 87.3428L186.471 85.1748L188.1 85.1326L189.392 84.1385L236.324 48.0086L289.659 73.7659L291.126 74.4746L292.73 74.1825Z" stroke="black" stroke-width="10"/>
</svg>
