<svg width="490" height="259" viewBox="0 0 490 259" fill="none" xmlns="http://www.w3.org/2000/svg">
<path d="M233.788 24.185L298.506 57.1494L402.284 37.8455L388.277 86.8132L478.442 105.028L393.915 141.314L417.65 186.378L312.118 188.727L255.519 234.241L190.801 201.277L87.0228 220.581L101.03 171.613L10.865 153.398L95.3916 117.112L71.6573 72.0485L177.189 69.6995L233.788 24.185Z" fill="#5900FF"/>
<path d="M174.076 115.436L173.536 110.214L163.092 111.295L162.551 106.073L172.995 104.992L173.536 110.214L178.758 109.673L179.299 114.895L174.076 115.436ZM165.254 132.183L164.713 126.961L159.491 127.502L157.87 111.835L163.092 111.295L164.713 126.961L175.158 125.88L175.698 131.102L165.254 132.183ZM175.158 125.88L174.617 120.658L179.839 120.117L180.38 125.339L175.158 125.88ZM191.364 129.48L188.662 103.37L193.884 102.829L194.965 113.273L205.409 112.192L204.328 101.748L209.55 101.208L212.253 127.318L207.031 127.859L205.95 117.414L195.505 118.496L196.587 128.94L191.364 129.48ZM222.697 126.237L219.994 100.126L235.66 98.5046L236.201 103.727L225.757 104.808L226.297 110.03L236.742 108.949L237.282 114.171L226.838 115.252L227.379 120.474L237.823 119.393L238.363 124.615L222.697 126.237ZM248.807 123.534L246.105 97.4235L261.771 95.8018L262.311 101.024L267.534 100.483L268.074 105.705L262.852 106.246L263.933 116.69L269.155 116.15L269.696 121.372L264.474 121.912L263.933 116.69L258.711 117.231L258.171 112.009L252.948 112.549L254.03 122.993L248.807 123.534ZM252.408 107.327L262.643 106.268L262.103 101.046L251.867 102.105L252.408 107.327ZM280.14 120.291L277.437 94.1801L293.103 92.5583L293.644 97.7804L298.866 97.2399L299.407 102.462L294.185 103.003L295.266 113.447L300.488 112.906L301.028 118.128L295.806 118.669L295.266 113.447L290.044 113.987L289.503 108.765L284.281 109.306L285.362 119.75L280.14 120.291ZM283.74 104.084L293.976 103.024L293.435 97.8021L283.2 98.8616L283.74 104.084ZM321.917 115.966L320.295 100.3L315.073 100.84L314.532 95.6182L309.31 96.1587L308.77 90.9366L313.992 90.3961L314.532 95.6182L319.755 95.0776L320.295 100.3L325.517 99.7591L327.139 115.425L321.917 115.966ZM330.199 93.9964L329.658 88.7743L334.88 88.2338L335.421 93.4559L330.199 93.9964ZM325.517 99.7591L324.977 94.537L330.199 93.9964L330.739 99.2185L325.517 99.7591ZM193.078 171.527L190.375 145.417L206.041 143.795L206.582 149.017L211.804 148.477L213.426 164.143L208.204 164.684L208.744 169.906L193.078 171.527ZM196.678 155.32L206.914 154.261L206.373 149.039L196.138 150.098L196.678 155.32ZM197.759 165.765L207.995 164.705L207.454 159.483L197.219 160.543L197.759 165.765ZM229.633 167.743L229.092 162.521L223.87 163.062L222.248 147.396L227.47 146.855L226.93 141.633L237.374 140.552L237.915 145.774L243.137 145.233L244.758 160.9L239.536 161.44L240.077 166.662L229.633 167.743ZM229.07 162.312L239.515 161.231L237.936 145.983L227.492 147.064L229.07 162.312ZM255.743 165.04L253.04 138.93L258.262 138.389L258.803 143.612L264.025 143.071L264.566 148.293L269.788 147.752L270.328 152.975L265.106 153.515L264.566 148.293L259.343 148.834L260.965 164.5L255.743 165.04ZM276.631 162.878L275.01 147.212L269.788 147.752L269.247 142.53L274.469 141.99L273.929 136.768L279.151 136.227L281.854 162.338L276.631 162.878ZM292.298 161.256L289.595 135.146L305.261 133.524L305.802 138.746L311.024 138.206L312.646 153.872L307.423 154.413L307.964 159.635L292.298 161.256ZM295.898 145.05L306.133 143.99L305.593 138.768L295.358 139.827L295.898 145.05ZM296.979 155.494L307.215 154.434L306.674 149.212L296.439 150.272L296.979 155.494Z" fill="white"/>
<path d="M292.73 74.1825L374.941 59.204L364.951 92.0666L363.33 97.4018L368.809 98.4344L430.594 110.076L372.501 134.119L367.348 136.251L370.028 141.142L386.533 171.263L302.997 173.431L301.368 173.474L300.077 174.468L253.144 210.598L199.809 184.84L198.342 184.132L196.738 184.424L114.527 199.402L124.517 166.539L126.139 161.204L120.659 160.172L58.8743 148.53L116.967 124.487L122.12 122.355L119.44 117.464L102.935 87.3428L186.471 85.1748L188.1 85.1326L189.392 84.1385L236.324 48.0086L289.659 73.7659L291.126 74.4746L292.73 74.1825Z" stroke="black" stroke-width="10"/>
</svg>
