<svg width="366" height="366" viewBox="0 0 366 366" fill="none" xmlns="http://www.w3.org/2000/svg">
<path fill-rule="evenodd" clip-rule="evenodd" d="M35.7611 34.2362C38.0374 32.2588 40.8489 31.0006 43.8401 30.6206C46.8313 30.2406 49.8681 30.7558 52.5666 32.1012L327.067 169.351C329.604 170.616 331.739 172.563 333.231 174.974C334.724 177.385 335.514 180.165 335.514 183C335.514 185.835 334.724 188.615 333.231 191.026C331.739 193.437 329.604 195.384 327.067 196.649L52.5666 333.899C49.8683 335.249 46.8302 335.768 43.8366 335.391C40.8431 335.014 38.0287 333.757 35.7495 331.78C33.4704 329.803 31.8289 327.194 31.0329 324.284C30.2369 321.374 30.322 318.293 31.2776 315.431L70.3481 198.25H152.5C156.544 198.25 160.423 196.643 163.283 193.783C166.143 190.923 167.75 187.045 167.75 183C167.75 178.955 166.143 175.077 163.283 172.217C160.423 169.357 156.544 167.75 152.5 167.75H70.3481L31.2623 50.569C30.3117 47.7083 30.2302 44.63 31.0282 41.723C31.8262 38.816 33.4831 36.2107 35.7611 34.2362Z" fill="black"/>
</svg>
